<svg width="101" height="101" viewBox="0 0 101 101" fill="none" xmlns="http://www.w3.org/2000/svg">
<g opacity="0.4">
<path fill-rule="evenodd" clip-rule="evenodd" d="M71.5414 49.5436C72.3785 49.5436 73.1813 49.2111 73.7732 48.6192C74.3651 48.0273 74.6976 47.2244 74.6976 46.3874V16.1294L81.936 23.3678C82.2249 23.6779 82.5734 23.9266 82.9605 24.0991C83.3477 24.2716 83.7657 24.3644 84.1894 24.3718C84.6132 24.3793 85.0342 24.3014 85.4272 24.1426C85.8202 23.9839 86.1772 23.7476 86.4769 23.4479C86.7766 23.1482 87.0129 22.7912 87.1717 22.3982C87.3304 22.0052 87.4084 21.5842 87.4009 21.1604C87.3934 20.7366 87.3006 20.3187 87.1281 19.9315C86.9556 19.5443 86.7069 19.1959 86.3968 18.9069L73.7718 6.28194C73.18 5.69088 72.3778 5.35889 71.5414 5.35889C70.705 5.35889 69.9028 5.69088 69.311 6.28194L56.686 18.9069C56.1285 19.5053 55.8249 20.2966 55.8394 21.1143C55.8538 21.932 56.185 22.7122 56.7633 23.2904C57.3416 23.8687 58.1218 24.2 58.9394 24.2144C59.7571 24.2288 60.5485 23.9253 61.1468 23.3678L68.3851 16.1294V46.3874C68.3851 48.1296 69.7991 49.5436 71.5414 49.5436Z" fill="#05B6F0"/>
<path fill-rule="evenodd" clip-rule="evenodd" d="M50.4998 5.35608H50.26C40.5429 5.35608 32.93 5.35608 26.9879 6.15566C20.911 6.97208 16.1135 8.68066 12.3471 12.4429C8.58063 16.2094 6.87625 21.0069 6.05984 27.0879C5.26025 33.0259 5.26025 40.6387 5.26025 50.3558V50.8355C5.26025 60.5526 5.26025 68.1655 6.05984 74.1076C6.87625 80.1844 8.58484 84.9819 12.3471 88.7484C16.1135 92.5149 20.911 94.2192 26.9921 95.0357C32.93 95.8352 40.5429 95.8352 50.26 95.8352H50.7397C60.4567 95.8352 68.0696 95.8352 74.0118 95.0357C80.0886 94.2192 84.8861 92.5107 88.6526 88.7484C92.419 84.9819 94.1234 80.1844 94.9398 74.1034C95.7394 68.1655 95.7394 60.5526 95.7394 50.8355V50.5957C95.7394 49.7586 95.4069 48.9558 94.815 48.3639C94.2231 47.7719 93.4202 47.4394 92.5832 47.4394C91.7461 47.4394 90.9433 47.7719 90.3514 48.3639C89.7594 48.9558 89.4269 49.7586 89.4269 50.5957C89.4269 60.6031 89.4185 67.7909 88.6862 73.2617L88.5937 73.9014L76.9197 63.3932C74.2639 61.0037 70.876 59.5859 67.3098 59.3719C63.7437 59.1579 60.2104 60.1601 57.2879 62.2149L56.0338 63.0986C55.0203 63.8093 53.7887 64.1398 52.5556 64.0321C51.3225 63.9243 50.1669 63.3852 49.292 62.5095L31.2383 44.4557C28.9353 42.1536 25.8435 40.8129 22.5891 40.7051C19.3346 40.5973 16.1609 41.7304 13.7106 43.875L11.577 45.7392C11.598 38.1979 11.7032 32.4704 12.3134 27.9296C13.0373 22.5471 14.4176 19.3025 16.8121 16.9037C19.2109 14.5092 22.4513 13.1331 27.8338 12.4092C33.3046 11.677 40.4924 11.6686 50.4998 11.6686C51.3369 11.6686 52.1397 11.336 52.7316 10.7441C53.3236 10.1522 53.6561 9.34942 53.6561 8.51233C53.6561 7.67524 53.3236 6.87243 52.7316 6.28052C52.1397 5.68861 51.3369 5.35608 50.4998 5.35608ZM12.3134 73.2617C13.0373 78.6442 14.4176 81.8888 16.8121 84.2876C19.2109 86.6821 22.4513 88.0582 27.8338 88.7821C33.3046 89.5143 40.4924 89.5227 50.4998 89.5227C60.5072 89.5227 67.6951 89.5143 73.1659 88.7821C78.5484 88.0582 81.793 86.6779 84.1917 84.2834C85.2474 83.2296 86.108 81.9972 86.7336 80.6432C86.5685 80.5378 86.411 80.4211 86.2622 80.2939L72.6988 68.0897C71.106 66.6537 69.0729 65.8009 66.9323 65.6709C64.7916 65.541 62.6703 66.1415 60.9155 67.3743L59.6656 68.258C57.4368 69.8249 54.7267 70.5553 52.0124 70.3205C49.2981 70.0857 46.7536 68.9008 44.827 66.9745L26.7733 48.9207C25.6028 47.7505 24.0312 47.069 22.3769 47.0143C20.7226 46.9596 19.1095 47.5358 17.8642 48.6262L11.5728 54.1307C11.5854 62.3285 11.6695 68.46 12.3134 73.2617Z" fill="#05B6F0"/>
</g>
</svg>
