<svg width="421" height="362" viewBox="0 0 421 362" fill="none" xmlns="http://www.w3.org/2000/svg">
<g opacity="0.4">
<path d="M186.732 140.049L29.8253 291.121H0L47.3314 245.268C42.3605 235.266 36.8718 210.722 35.0123 177.655C35.0123 136.159 66.7827 0.648375 222.393 0C62.244 22.0448 49.9249 167.929 71.9697 221.4L186.732 110.224L352.716 269.724L337.155 286.582L186.732 140.049Z" fill="white"/>
<path d="M354.661 219.151C349.474 233.156 358.984 251.354 364.387 258.702C379.948 243.141 386.432 215.909 394.212 199.7C389.674 284.637 300.378 340.397 233.415 340.397C179.845 340.397 144.095 317.92 132.917 306.682H85.5855C106.334 329.375 161.445 365.035 222.393 361.793C313.684 357.644 364.171 291.337 378.003 258.702C398.102 258.702 415.868 237.236 419.499 221.4C424.038 201.604 405.235 149.775 404.586 159.5C403.938 169.226 361.145 201.645 354.661 219.151Z" fill="white"/>
<path fill-rule="evenodd" clip-rule="evenodd" d="M234.712 118.653C177.655 114.114 195.161 45.3861 234.712 8.42871C248.782 22.1186 258.949 37.2581 265.017 51.8198L254.163 48.6276L250.171 32.4068L247.679 47.9792L229.525 51.8695L247.679 55.7598L250.273 72.6175L254.812 55.7598L265.186 53.8146V52.2276C268.637 60.6097 270.727 68.7939 271.419 76.3923L263.24 72.6175L261.295 62.8919L259.35 72.6175C255.028 73.9143 246.642 76.5078 247.679 76.5078C248.717 76.5078 255.892 77.8045 259.35 78.4529L261.295 90.772L264.537 79.1013L271.534 77.8291C273.131 101.18 261.231 118.653 234.712 118.653ZM311.22 290.472H59.002L185.435 168.577L311.22 290.472ZM257.405 33.7153L267.13 31.7702L269.076 21.3962L271.669 31.7702L282.691 33.7153L271.669 37.6056L269.076 47.9796L267.13 37.6056L257.405 33.7153ZM164.687 228.876V247.031H182.842V228.876H164.687ZM189.326 228.876V247.031H207.48V228.876H189.326ZM207.48 254.163H189.326V271.669H207.48V254.163ZM182.842 254.163H164.687V271.669H182.842V254.163Z" fill="white"/>
</g>
</svg>
