<svg width="1787" height="419" viewBox="0 0 1787 419" fill="none" xmlns="http://www.w3.org/2000/svg">
<path opacity="0.3" d="M815.708 21.9686C806.732 19.2207 802.656 11.5112 801.74 8C796.931 20.5946 794.412 19.9077 788.916 22.6556C796.211 23.7581 800.45 31.8833 801.969 35.7082C804.259 29.7544 806.778 24.9456 815.708 21.9686Z" fill="#0FACDF"/>
<path opacity="0.3" d="M724.713 209.938C718.327 207.983 715.427 202.498 714.775 200C711.354 208.961 709.562 208.472 705.652 210.427C710.842 211.211 713.858 216.992 714.938 219.713C716.568 215.477 718.36 212.056 724.713 209.938Z" fill="#0FACDF"/>
<path opacity="0.5" d="M994.051 170.125C986.259 167.74 982.721 161.048 981.926 158C977.752 168.932 975.566 168.336 970.795 170.721C977.127 171.678 980.807 178.731 982.125 182.051C984.113 176.883 986.299 172.709 994.051 170.125Z" fill="#0FACDF"/>
<path d="M934.405 406.295C927.146 404.073 923.851 397.839 923.11 395C919.221 405.184 917.185 404.629 912.741 406.851C918.639 407.742 922.067 414.312 923.295 417.405C925.147 412.591 927.184 408.702 934.405 406.295Z" fill="#0FACDF"/>
<path d="M261.019 19.6049C253.562 17.322 250.176 10.9171 249.415 8C245.419 18.4634 243.327 17.8927 238.761 20.1756C244.821 21.0916 248.343 27.8419 249.605 31.0195C251.507 26.0733 253.6 22.0781 261.019 19.6049Z" fill="#0FACDF"/>
<path d="M391.019 406.605C383.562 404.322 380.176 397.917 379.415 395C375.419 405.463 373.327 404.893 368.761 407.176C374.821 408.092 378.343 414.842 379.605 418.02C381.507 413.073 383.6 409.078 391.019 406.605Z" fill="#0FACDF"/>
<path opacity="0.5" d="M1702.25 84.7603C1691.48 81.4632 1686.58 72.213 1685.49 68C1679.72 83.1118 1676.69 82.2875 1670.1 85.5846C1678.85 86.9075 1683.94 96.6565 1685.76 101.246C1688.51 94.1022 1691.53 88.3323 1702.25 84.7603Z" fill="#0FACDF"/>
<path opacity="0.5" d="M1786.75 294.475C1778.73 292.021 1775.09 285.136 1774.27 282C1769.98 293.248 1767.73 292.635 1762.82 295.089C1769.33 296.074 1773.12 303.33 1774.48 306.746C1776.52 301.429 1778.77 297.134 1786.75 294.475Z" fill="#0FACDF"/>
<path d="M121.752 116.297C111.142 113.049 106.323 103.936 105.241 99.7854C99.5564 114.673 96.5789 113.861 90.0825 117.109C98.7053 118.412 103.716 128.017 105.511 132.538C108.218 125.5 111.196 119.816 121.752 116.297Z" fill="#0FACDF"/>
<path d="M32.7523 290.512C22.1416 287.263 17.3234 278.15 16.2407 274C10.5564 288.887 7.57891 288.075 1.08255 291.324C9.70529 292.627 14.716 302.231 16.5114 306.752C19.2183 299.715 22.1958 294.031 32.7523 290.512Z" fill="#0FACDF"/>
<path d="M1041.8 8.46739C1036.35 6.80167 1033.88 2.12841 1033.33 0C1030.41 7.63453 1028.89 7.2181 1025.56 8.88381C1029.98 9.55214 1032.55 14.4774 1033.47 16.796C1034.86 13.187 1036.38 10.272 1041.8 8.46739Z" fill="#0FACDF"/>
</svg>
