<svg width="1259" height="144" viewBox="0 0 1259 144" fill="none" xmlns="http://www.w3.org/2000/svg">
<path opacity="0.3" d="M642.427 28.4268C633.451 25.6789 629.374 17.9695 628.458 14.4583C623.65 27.0529 621.131 26.3659 615.635 29.1138C622.93 30.2164 627.169 38.3415 628.687 42.1664C630.977 36.2127 633.496 31.4038 642.427 28.4268Z" fill="#0FACDF"/>
<path opacity="0.3" d="M588.713 133.938C582.327 131.983 579.427 126.498 578.775 124C575.354 132.961 573.562 132.472 569.652 134.427C574.842 135.211 577.858 140.992 578.938 143.713C580.568 139.477 582.36 136.056 588.713 133.938Z" fill="#0FACDF"/>
<path opacity="0.5" d="M831.254 21.2539C825.129 19.3789 822.348 14.1185 821.723 11.7227C818.441 20.3164 816.723 19.8477 812.973 21.7227C817.95 22.475 820.843 28.0191 821.879 30.6289C823.441 26.5665 825.16 23.2852 831.254 21.2539Z" fill="#0FACDF"/>
<path opacity="0.5" d="M965.875 120.125C958.083 117.74 954.545 111.048 953.75 108C949.576 118.932 947.389 118.336 942.619 120.721C948.951 121.678 952.63 128.731 953.949 132.051C955.937 126.883 958.123 122.709 965.875 120.125Z" fill="#0FACDF"/>
<path d="M457.304 123.696C450.045 121.474 446.749 115.24 446.009 112.401C442.12 122.585 440.084 122.03 435.64 124.252C441.538 125.143 444.966 131.713 446.194 134.806C448.046 129.992 450.082 126.103 457.304 123.696Z" fill="#0FACDF"/>
<path d="M119.355 11.6452C111.897 9.36224 108.511 2.95736 107.75 0.0402832C103.755 10.5037 101.662 9.93298 97.0963 12.2159C103.157 13.1319 106.678 19.8821 107.94 23.0598C109.843 18.1135 111.935 14.1184 119.355 11.6452Z" fill="#0FACDF"/>
<path opacity="0.5" d="M1258.25 119.754C1247.48 116.457 1242.58 107.207 1241.49 102.994C1235.72 118.105 1232.69 117.281 1226.1 120.578C1234.85 121.901 1239.94 131.65 1241.76 136.24C1244.51 129.096 1247.53 123.326 1258.25 119.754Z" fill="#0FACDF"/>
<path opacity="0.5" d="M1104.91 19.0268C1096.89 16.5727 1093.25 9.68739 1092.43 6.55151C1088.14 17.7998 1085.89 17.1862 1080.98 19.6404C1087.5 20.625 1091.28 27.8816 1092.64 31.2976C1094.68 25.9804 1096.93 21.6856 1104.91 19.0268Z" fill="#0FACDF"/>
<path d="M33.3373 91.3373C22.7265 88.0891 17.9084 78.9761 16.8257 74.8257C11.1414 89.7132 8.16387 88.9011 1.66751 92.1493C10.2903 93.4526 15.301 103.057 17.0964 107.578C19.8033 100.541 22.7808 94.8562 33.3373 91.3373Z" fill="#0FACDF"/>
<path d="M413.876 15.4674C408.434 13.8017 405.963 9.12841 405.408 7C402.493 14.6345 400.966 14.2181 397.635 15.8838C402.057 16.5521 404.626 21.4774 405.547 23.796C406.935 20.187 408.462 17.272 413.876 15.4674Z" fill="#0FACDF"/>
</svg>
